<svg xmlns="http://www.w3.org/2000/svg" viewBox="0 0 713.35878 175.8678">
  <g id="3b371dc2-2f6e-4867-bd60-7ace2957eff3" fill="#FFFFFF"
     transform="matrix(5.813953660298242,0,0,5.813953660298242,137.2344178636586,0.9302297911601585)">
    <path
      d="M2.91 2.42L0.86 2.42L0.86 12.67L8.38 12.67L8.38 10.76L2.91 10.76L2.91 2.42ZM9.55 9.26L9.55 9.26L9.55 9.26Q9.55 7.75 10.51 6.79L10.51 6.79L10.51 6.79Q11.46 5.84 12.97 5.84L12.97 5.84L12.97 5.84Q14.47 5.84 15.36 6.79L15.36 6.79L15.36 6.79Q16.25 7.75 16.25 9.26L16.25 9.26L16.25 9.94L11.53 9.94L11.53 9.94Q11.60 10.49 12.01 10.79L12.01 10.79L12.01 10.79Q12.42 11.10 12.97 11.10L12.97 11.10L12.97 11.10Q13.92 11.10 14.68 10.55L14.68 10.55L15.77 11.65L15.77 11.65Q15.02 12.67 12.97 12.67L12.97 12.67L12.97 12.67Q11.46 12.67 10.51 11.72L10.51 11.72L10.51 11.72Q9.55 10.76 9.55 9.26ZM14.33 8.57L14.33 8.57Q14.33 8.03 13.92 7.72L13.92 7.72L13.92 7.72Q13.51 7.41 12.97 7.41L12.97 7.41L12.97 7.41Q12.42 7.41 12.01 7.72L12.01 7.72L12.01 7.72Q11.60 8.03 11.60 8.57L11.60 8.57L14.33 8.57ZM17.39 9.26L17.39 9.26L17.39 9.26Q17.39 7.75 18.35 6.79L18.35 6.79L18.35 6.79Q19.30 5.84 20.81 5.84L20.81 5.84L20.81 5.84Q22.31 5.84 23.20 6.79L23.20 6.79L23.20 6.79Q24.09 7.75 24.09 9.26L24.09 9.26L24.09 9.94L19.37 9.94L19.37 9.94Q19.44 10.49 19.85 10.79L19.85 10.79L19.85 10.79Q20.26 11.10 20.81 11.10L20.81 11.10L20.81 11.10Q21.77 11.10 22.52 10.55L22.52 10.55L23.61 11.65L23.61 11.65Q22.86 12.67 20.81 12.67L20.81 12.67L20.81 12.67Q19.30 12.67 18.35 11.72L18.35 11.72L18.35 11.72Q17.39 10.76 17.39 9.26ZM22.18 8.57L22.18 8.57Q22.18 8.03 21.77 7.72L21.77 7.72L21.77 7.72Q21.36 7.41 20.81 7.41L20.81 7.41L20.81 7.41Q20.26 7.41 19.85 7.72L19.85 7.72L19.85 7.72Q19.44 8.03 19.44 8.57L19.44 8.57L22.18 8.57ZM29.81 12.35L29.81 12.35Q29.32 12.67 28.68 12.67L28.68 12.67L28.68 12.67Q27.52 12.67 26.84 12.02L26.84 12.02L26.84 12.02Q26.15 11.38 26.15 10.35L26.15 10.35L26.15 7.39L25.13 7.39L25.13 5.84L26.15 5.84L26.15 3.99L28.08 3.79L28.08 5.84L29.10 5.84L29.10 7.39L28.08 7.39L28.08 10.08L28.08 10.08Q28.08 10.62 28.30 10.85L28.30 10.85L28.30 10.85Q28.53 11.07 28.90 11.07L28.90 11.07L28.90 11.07Q29.00 11.07 29.41 10.98L29.41 10.98L29.81 12.35ZM33.34 5.80L33.34 5.80Q34.30 5.80 34.84 6.03L34.84 6.03L34.84 6.03Q35.37 6.26 35.83 6.72L35.83 6.72L34.77 7.92L34.77 7.92Q34.30 7.37 33.61 7.37L33.61 7.37L33.61 7.37Q32.92 7.37 32.68 7.63L32.68 7.63L32.68 7.63Q32.45 7.88 32.68 8.09L32.68 8.09L32.68 8.09Q32.92 8.30 33.61 8.44L33.61 8.44L33.61 8.44Q34.62 8.53 35.27 9.02L35.27 9.02L35.27 9.02Q35.92 9.50 35.92 10.71L35.92 10.71L35.92 10.71Q35.92 11.68 35.16 12.21L35.16 12.21L35.16 12.21Q34.39 12.74 33.37 12.74L33.37 12.74L33.37 12.74Q32.40 12.74 31.76 12.47L31.76 12.47L31.76 12.47Q31.11 12.19 30.65 11.72L30.65 11.72L31.71 10.53L31.71 10.53Q32.17 11.08 33.15 11.17L33.15 11.17L33.15 11.17Q33.93 11.17 34.16 10.91L34.16 10.91L34.16 10.91Q34.39 10.66 34.23 10.40L34.23 10.40L34.23 10.40Q34.07 10.14 33.15 10.06L33.15 10.06L33.15 10.06Q32.31 9.96 31.62 9.54L31.62 9.54L31.62 9.54Q30.93 9.13 30.93 7.97L30.93 7.97L30.93 7.97Q30.93 6.91 31.72 6.35L31.72 6.35L31.72 6.35Q32.50 5.80 33.34 5.80L33.34 5.80ZM40.41 12.74L40.41 12.74Q38.92 12.74 37.92 11.74L37.92 11.74L37.92 11.74Q36.92 10.74 36.92 9.26L36.92 9.26L36.92 9.26Q36.92 7.77 37.92 6.77L37.92 6.77L37.92 6.77Q38.92 5.77 40.41 5.77L40.41 5.77L40.41 5.77Q41.90 5.77 42.90 6.77L42.90 6.77L42.90 6.77Q43.89 7.77 43.89 9.26L43.89 9.26L43.89 9.26Q43.89 10.75 42.90 11.74L42.90 11.74L42.90 11.74Q41.90 12.74 40.41 12.74L40.41 12.74ZM40.40 11.09L40.40 11.09L40.40 11.09Q41.18 11.09 41.67 10.56L41.67 10.56L41.67 10.56Q42.15 10.04 42.15 9.26L42.15 9.26L42.15 9.26Q42.15 8.48 41.67 7.96L41.67 7.96L41.67 7.96Q41.18 7.43 40.39 7.43L40.39 7.43L40.39 7.43Q39.62 7.43 39.14 7.96L39.14 7.96L39.14 7.96Q38.65 8.48 38.65 9.26L38.65 9.26L38.65 9.26Q38.65 10.04 39.14 10.56L39.14 10.56L39.14 10.56Q39.62 11.09 40.40 11.09ZM48.26 12.67L48.26 12.67Q46.89 12.67 45.87 11.82L45.87 11.82L45.87 11.82Q44.84 10.96 44.84 9.60L44.84 9.60L44.84 8.91L44.84 8.91Q44.84 7.55 45.87 6.69L45.87 6.69L45.87 6.69Q46.89 5.84 48.27 5.84L48.27 5.84L48.27 5.84Q49.91 5.84 51.00 7L51.00 7L49.63 8.03L49.63 8.03Q49.01 7.41 48.26 7.41L48.26 7.41L48.26 7.41Q47.58 7.41 47.07 7.96L47.07 7.96L47.07 7.96Q46.55 8.50 46.55 9.26L46.55 9.26L46.55 9.26Q46.55 10.01 47.03 10.55L47.03 10.55L47.03 10.55Q47.51 11.10 48.26 11.10L48.26 11.10L48.26 11.10Q49.01 11.10 49.63 10.49L49.63 10.49L51.00 11.51L51.00 11.51Q49.90 12.67 48.26 12.67L48.26 12.67ZM54.28 12.67L52.36 12.67L52.36 5.83L54.28 5.83L54.28 12.67ZM52.29 4.20L52.29 4.20L52.29 4.20Q52.29 4.61 52.57 4.88L52.57 4.88L52.57 4.88Q52.84 5.15 53.32 5.15L53.32 5.15L53.32 5.15Q53.80 5.15 54.07 4.88L54.07 4.88L54.07 4.88Q54.35 4.61 54.35 4.20L54.35 4.20L54.35 4.20Q54.35 3.79 54.07 3.51L54.07 3.51L54.07 3.51Q53.80 3.23 53.31 3.23L53.31 3.23L53.31 3.23Q52.84 3.23 52.57 3.51L52.57 3.51L52.57 3.51Q52.29 3.79 52.29 4.20ZM56.83 7.82L56.08 6.66L56.08 6.66Q57.37 5.84 59.08 5.84L59.08 5.84L59.08 5.84Q60.31 5.84 61.03 6.52L61.03 6.52L61.03 6.52Q61.75 7.21 61.75 8.57L61.75 8.57L61.75 12.67L59.83 12.67L59.83 12.13L59.83 12.13Q59.00 12.67 58.33 12.67L58.33 12.67L58.33 12.67Q56.96 12.67 56.28 12.09L56.28 12.09L56.28 12.09Q55.60 11.51 55.60 10.49L55.60 10.49L55.60 10.49Q55.60 9.53 56.24 8.78L56.24 8.78L56.24 8.78Q56.89 8.03 58.33 8.03L58.33 8.03L58.33 8.03Q58.99 8.03 59.83 8.44L59.83 8.44L59.83 8.23L59.83 8.23Q59.82 7.48 58.74 7.41L58.74 7.41L58.74 7.41Q57.51 7.41 56.83 7.82L56.83 7.82ZM59.83 10.62L59.83 10.62L59.83 9.85L59.83 9.85Q59.56 9.32 58.54 9.32L58.54 9.32L58.54 9.32Q57.31 9.46 57.24 10.28L57.24 10.28L57.24 10.28Q57.31 11.09 58.54 11.16L58.54 11.16L58.54 11.16Q59.56 11.16 59.83 10.62ZM65.37 12.67L63.46 12.67L63.46 2.42L65.37 2.42L65.37 12.67Z"></path>
  </g>
  <g id="437e5ed2-c72e-4f27-b96c-1e1bc1dce71c"
     transform="matrix(1.3696192587846947,0,0,1.3696192587846947,-0.25631961790039526,-16.488775794698682)"
     stroke="none" fill="#E96D77">
    <path
      d="M45.261 61.183C29.337 85.894 17.893 77.781 14.04 70.597 1.906 47.971 27.846 45.18 27.846 45.18 1.959 52.554 1.529 37.419.704 30.275-1.387 12.182 7.041 11.49 11.529 12.389c19.851 3.976 33.732 30.437 33.732 30.437h-.523S58.62 16.365 78.47 12.389c4.489-.899 12.916-.208 10.826 17.886-.825 7.144-1.255 22.279-27.143 14.905 0 0 25.94 2.791 13.807 25.417-3.853 7.185-15.297 15.297-31.222-9.414"></path>
  </g>
</svg>
