<svg data-v-29081953="" xmlns="http://www.w3.org/2000/svg" viewBox="0 0 300 300"><!----><defs data-v-29081953=""><!----></defs><!----><defs data-v-29081953=""><!----></defs><g data-v-29081953="" id="f3a64fb9-c863-4a8b-8ef4-c6f4fc55224f" fill="#E96D77" stroke="none" transform="matrix(2.4650688083374432,0,0,2.4650688083374432,39.07222275579911,39.07148516945476)"><path d="M45.261 61.183C29.337 85.894 17.893 77.781 14.04 70.597 1.906 47.971 27.846 45.18 27.846 45.18 1.959 52.554 1.529 37.419.704 30.275-1.387 12.182 7.041 11.49 11.529 12.389c19.851 3.976 33.732 30.437 33.732 30.437h-.523S58.62 16.365 78.47 12.389c4.489-.899 12.916-.208 10.826 17.886-.825 7.144-1.255 22.279-27.143 14.905 0 0 25.94 2.791 13.807 25.417-3.853 7.185-15.297 15.297-31.222-9.414"></path></g><!----></svg>
