<svg data-v-d3f97b9e="" xmlns="http://www.w3.org/2000/svg" viewBox="0 0 81.48960816388042 60"><!----><!----><!----><!----><g data-v-d3f97b9e="" id="f8b60c01-6c36-461e-9eaf-b8ecf8f41aee" transform="matrix(0.9130795058564631,0,0,0.9130795058564631,-0.3436554111859138,-11.088732762465135)" stroke="none" fill="black"><path d="M45.261 61.183C29.337 85.894 17.893 77.781 14.04 70.597 1.906 47.971 27.846 45.18 27.846 45.18 1.959 52.554 1.529 37.419.704 30.275-1.387 12.182 7.041 11.49 11.529 12.389c19.851 3.976 33.732 30.437 33.732 30.437h-.523S58.62 16.365 78.47 12.389c4.489-.899 12.916-.208 10.826 17.886-.825 7.144-1.255 22.279-27.143 14.905 0 0 25.94 2.791 13.807 25.417-3.853 7.185-15.297 15.297-31.222-9.414"></path></g><!----></svg>